<mxfile host="app.diagrams.net" modified="2020-11-23T08:43:12.883Z" agent="5.0 (Windows NT 10.0; Win64; x64) AppleWebKit/537.36 (KHTML, like Gecko) Chrome/86.0.4240.198 Safari/537.36" etag="Qn9WXYQjiXnuxAj-IM02" version="13.10.1" type="github">
  <diagram name="Page-1" id="9f46799a-70d6-7492-0946-bef42562c5a5">
    <mxGraphModel dx="1038" dy="1435" grid="1" gridSize="10" guides="1" tooltips="1" connect="1" arrows="1" fold="1" page="1" pageScale="1" pageWidth="1100" pageHeight="850" background="#ffffff" math="0" shadow="0">
      <root>
        <mxCell id="0" />
        <mxCell id="1" parent="0" />
        <mxCell id="lLXj63jn0TfQNPXipLnm-31" value="" style="group" vertex="1" connectable="0" parent="1">
          <mxGeometry x="90" y="-110" width="680" height="636" as="geometry" />
        </mxCell>
        <mxCell id="lLXj63jn0TfQNPXipLnm-25" value="" style="group" vertex="1" connectable="0" parent="lLXj63jn0TfQNPXipLnm-31">
          <mxGeometry y="30" width="440" height="606" as="geometry" />
        </mxCell>
        <mxCell id="78961159f06e98e8-30" value="product_demontration" style="swimlane;html=1;fontStyle=1;align=center;verticalAlign=top;childLayout=stackLayout;horizontal=1;startSize=26;horizontalStack=0;resizeParent=1;resizeLast=0;collapsible=1;marginBottom=0;swimlaneFillColor=#ffffff;rounded=0;shadow=0;comic=0;labelBackgroundColor=none;strokeWidth=1;fillColor=none;fontFamily=Verdana;fontSize=12" parent="lLXj63jn0TfQNPXipLnm-25" vertex="1">
          <mxGeometry x="280" y="190" width="160" height="294" as="geometry">
            <mxRectangle x="330" y="-48" width="180" height="26" as="alternateBounds" />
          </mxGeometry>
        </mxCell>
        <mxCell id="lLXj63jn0TfQNPXipLnm-38" value="" style="group" vertex="1" connectable="0" parent="78961159f06e98e8-30">
          <mxGeometry y="26" width="160" height="256" as="geometry" />
        </mxCell>
        <mxCell id="78961159f06e98e8-31" value="name&lt;br&gt;" style="text;html=1;strokeColor=none;fillColor=none;align=left;verticalAlign=top;spacingLeft=4;spacingRight=4;whiteSpace=wrap;overflow=hidden;rotatable=0;points=[[0,0.5],[1,0.5]];portConstraint=eastwest;" parent="lLXj63jn0TfQNPXipLnm-38" vertex="1">
          <mxGeometry width="160" height="26" as="geometry" />
        </mxCell>
        <mxCell id="lLXj63jn0TfQNPXipLnm-1" value="commodities" style="text;html=1;strokeColor=none;fillColor=none;align=left;verticalAlign=top;spacingLeft=4;spacingRight=4;whiteSpace=wrap;overflow=hidden;rotatable=0;points=[[0,0.5],[1,0.5]];portConstraint=eastwest;" vertex="1" parent="lLXj63jn0TfQNPXipLnm-38">
          <mxGeometry y="26" width="160" height="26" as="geometry" />
        </mxCell>
        <mxCell id="78961159f06e98e8-32" value="Product Description" style="text;html=1;strokeColor=none;fillColor=none;align=left;verticalAlign=top;spacingLeft=4;spacingRight=4;whiteSpace=wrap;overflow=hidden;rotatable=0;points=[[0,0.5],[1,0.5]];portConstraint=eastwest;" parent="lLXj63jn0TfQNPXipLnm-38" vertex="1">
          <mxGeometry y="52" width="160" height="26" as="geometry" />
        </mxCell>
        <mxCell id="78961159f06e98e8-33" value="brand" style="text;html=1;strokeColor=none;fillColor=none;align=left;verticalAlign=top;spacingLeft=4;spacingRight=4;whiteSpace=wrap;overflow=hidden;rotatable=0;points=[[0,0.5],[1,0.5]];portConstraint=eastwest;" parent="lLXj63jn0TfQNPXipLnm-38" vertex="1">
          <mxGeometry y="78" width="160" height="26" as="geometry" />
        </mxCell>
        <mxCell id="78961159f06e98e8-34" value="material" style="text;html=1;strokeColor=none;fillColor=none;align=left;verticalAlign=top;spacingLeft=4;spacingRight=4;whiteSpace=wrap;overflow=hidden;rotatable=0;points=[[0,0.5],[1,0.5]];portConstraint=eastwest;" parent="lLXj63jn0TfQNPXipLnm-38" vertex="1">
          <mxGeometry y="104" width="160" height="26" as="geometry" />
        </mxCell>
        <mxCell id="78961159f06e98e8-36" value="origin" style="text;html=1;strokeColor=none;fillColor=none;align=left;verticalAlign=top;spacingLeft=4;spacingRight=4;whiteSpace=wrap;overflow=hidden;rotatable=0;points=[[0,0.5],[1,0.5]];portConstraint=eastwest;" parent="lLXj63jn0TfQNPXipLnm-38" vertex="1">
          <mxGeometry y="130" width="160" height="24" as="geometry" />
        </mxCell>
        <mxCell id="lLXj63jn0TfQNPXipLnm-6" value="product_id" style="text;html=1;strokeColor=none;fillColor=none;align=left;verticalAlign=top;spacingLeft=4;spacingRight=4;whiteSpace=wrap;overflow=hidden;rotatable=0;points=[[0,0.5],[1,0.5]];portConstraint=eastwest;" vertex="1" parent="lLXj63jn0TfQNPXipLnm-38">
          <mxGeometry y="154" width="160" height="24" as="geometry" />
        </mxCell>
        <mxCell id="78961159f06e98e8-38" value="" style="line;html=1;strokeWidth=1;fillColor=none;align=left;verticalAlign=middle;spacingTop=-1;spacingLeft=3;spacingRight=3;rotatable=0;labelPosition=right;points=[];portConstraint=eastwest;" parent="lLXj63jn0TfQNPXipLnm-38" vertex="1">
          <mxGeometry y="178" width="160" height="78" as="geometry" />
        </mxCell>
        <mxCell id="lLXj63jn0TfQNPXipLnm-20" value="" style="group" vertex="1" connectable="0" parent="lLXj63jn0TfQNPXipLnm-25">
          <mxGeometry width="170" height="606" as="geometry" />
        </mxCell>
        <mxCell id="78961159f06e98e8-17" value="sales_asociates" style="swimlane;html=1;fontStyle=1;align=center;verticalAlign=top;childLayout=stackLayout;horizontal=1;startSize=26;horizontalStack=0;resizeParent=1;resizeLast=0;collapsible=1;marginBottom=0;swimlaneFillColor=#ffffff;rounded=0;shadow=0;comic=0;labelBackgroundColor=none;strokeWidth=1;fillColor=none;fontFamily=Verdana;fontSize=12" parent="lLXj63jn0TfQNPXipLnm-20" vertex="1">
          <mxGeometry width="160" height="310" as="geometry" />
        </mxCell>
        <mxCell id="lLXj63jn0TfQNPXipLnm-37" value="" style="group" vertex="1" connectable="0" parent="78961159f06e98e8-17">
          <mxGeometry y="26" width="160" height="254" as="geometry" />
        </mxCell>
        <mxCell id="78961159f06e98e8-21" value="sales_id&lt;br&gt;" style="text;html=1;strokeColor=none;fillColor=none;align=left;verticalAlign=top;spacingLeft=4;spacingRight=4;whiteSpace=wrap;overflow=hidden;rotatable=0;points=[[0,0.5],[1,0.5]];portConstraint=eastwest;" parent="lLXj63jn0TfQNPXipLnm-37" vertex="1">
          <mxGeometry width="160" height="26" as="geometry" />
        </mxCell>
        <mxCell id="78961159f06e98e8-23" value="sales_name&lt;br&gt;" style="text;html=1;strokeColor=none;fillColor=none;align=left;verticalAlign=top;spacingLeft=4;spacingRight=4;whiteSpace=wrap;overflow=hidden;rotatable=0;points=[[0,0.5],[1,0.5]];portConstraint=eastwest;" parent="lLXj63jn0TfQNPXipLnm-37" vertex="1">
          <mxGeometry y="26" width="160" height="26" as="geometry" />
        </mxCell>
        <mxCell id="78961159f06e98e8-26" value="sales_phone&lt;br&gt;" style="text;html=1;strokeColor=none;fillColor=none;align=left;verticalAlign=top;spacingLeft=4;spacingRight=4;whiteSpace=wrap;overflow=hidden;rotatable=0;points=[[0,0.5],[1,0.5]];portConstraint=eastwest;" parent="lLXj63jn0TfQNPXipLnm-37" vertex="1">
          <mxGeometry y="52" width="160" height="26" as="geometry" />
        </mxCell>
        <mxCell id="78961159f06e98e8-24" value="sales_nameStore&lt;br&gt;" style="text;html=1;strokeColor=none;fillColor=none;align=left;verticalAlign=top;spacingLeft=4;spacingRight=4;whiteSpace=wrap;overflow=hidden;rotatable=0;points=[[0,0.5],[1,0.5]];portConstraint=eastwest;" parent="lLXj63jn0TfQNPXipLnm-37" vertex="1">
          <mxGeometry y="78" width="160" height="26" as="geometry" />
        </mxCell>
        <mxCell id="78961159f06e98e8-27" value="sales_sex" style="text;html=1;strokeColor=none;fillColor=none;align=left;verticalAlign=top;spacingLeft=4;spacingRight=4;whiteSpace=wrap;overflow=hidden;rotatable=0;points=[[0,0.5],[1,0.5]];portConstraint=eastwest;" parent="lLXj63jn0TfQNPXipLnm-37" vertex="1">
          <mxGeometry y="104" width="160" height="26" as="geometry" />
        </mxCell>
        <mxCell id="78961159f06e98e8-20" value="sales_dateOfBirth" style="text;html=1;strokeColor=none;fillColor=none;align=left;verticalAlign=top;spacingLeft=4;spacingRight=4;whiteSpace=wrap;overflow=hidden;rotatable=0;points=[[0,0.5],[1,0.5]];portConstraint=eastwest;" parent="lLXj63jn0TfQNPXipLnm-37" vertex="1">
          <mxGeometry y="130" width="160" height="36" as="geometry" />
        </mxCell>
        <mxCell id="78961159f06e98e8-19" value="" style="line;html=1;strokeWidth=1;fillColor=none;align=left;verticalAlign=middle;spacingTop=-1;spacingLeft=3;spacingRight=3;rotatable=0;labelPosition=right;points=[];portConstraint=eastwest;" parent="lLXj63jn0TfQNPXipLnm-37" vertex="1">
          <mxGeometry y="166" width="160" height="88" as="geometry" />
        </mxCell>
        <mxCell id="lLXj63jn0TfQNPXipLnm-8" value="customer" style="swimlane;html=1;fontStyle=1;align=center;verticalAlign=top;childLayout=stackLayout;horizontal=1;startSize=26;horizontalStack=0;resizeParent=1;resizeLast=0;collapsible=1;marginBottom=0;swimlaneFillColor=#ffffff;rounded=0;shadow=0;comic=0;labelBackgroundColor=none;strokeWidth=1;fillColor=none;fontFamily=Verdana;fontSize=12" vertex="1" parent="lLXj63jn0TfQNPXipLnm-20">
          <mxGeometry x="10" y="390" width="160" height="216" as="geometry" />
        </mxCell>
        <mxCell id="lLXj63jn0TfQNPXipLnm-14" value="" style="line;html=1;strokeWidth=1;fillColor=none;align=left;verticalAlign=middle;spacingTop=-1;spacingLeft=3;spacingRight=3;rotatable=0;labelPosition=right;points=[];portConstraint=eastwest;" vertex="1" parent="lLXj63jn0TfQNPXipLnm-8">
          <mxGeometry y="26" width="160" height="60" as="geometry" />
        </mxCell>
        <mxCell id="lLXj63jn0TfQNPXipLnm-39" value="" style="group" vertex="1" connectable="0" parent="lLXj63jn0TfQNPXipLnm-8">
          <mxGeometry y="86" width="160" height="130" as="geometry" />
        </mxCell>
        <mxCell id="lLXj63jn0TfQNPXipLnm-9" value="user_id" style="text;html=1;strokeColor=none;fillColor=none;align=left;verticalAlign=top;spacingLeft=4;spacingRight=4;whiteSpace=wrap;overflow=hidden;rotatable=0;points=[[0,0.5],[1,0.5]];portConstraint=eastwest;" vertex="1" parent="lLXj63jn0TfQNPXipLnm-39">
          <mxGeometry width="160" height="26" as="geometry" />
        </mxCell>
        <mxCell id="lLXj63jn0TfQNPXipLnm-10" value="user_name" style="text;html=1;strokeColor=none;fillColor=none;align=left;verticalAlign=top;spacingLeft=4;spacingRight=4;whiteSpace=wrap;overflow=hidden;rotatable=0;points=[[0,0.5],[1,0.5]];portConstraint=eastwest;" vertex="1" parent="lLXj63jn0TfQNPXipLnm-39">
          <mxGeometry y="26" width="160" height="26" as="geometry" />
        </mxCell>
        <mxCell id="lLXj63jn0TfQNPXipLnm-11" value="user_phone" style="text;html=1;strokeColor=none;fillColor=none;align=left;verticalAlign=top;spacingLeft=4;spacingRight=4;whiteSpace=wrap;overflow=hidden;rotatable=0;points=[[0,0.5],[1,0.5]];portConstraint=eastwest;" vertex="1" parent="lLXj63jn0TfQNPXipLnm-39">
          <mxGeometry y="52" width="160" height="26" as="geometry" />
        </mxCell>
        <mxCell id="lLXj63jn0TfQNPXipLnm-12" value="user_sex" style="text;html=1;strokeColor=none;fillColor=none;align=left;verticalAlign=top;spacingLeft=4;spacingRight=4;whiteSpace=wrap;overflow=hidden;rotatable=0;points=[[0,0.5],[1,0.5]];portConstraint=eastwest;" vertex="1" parent="lLXj63jn0TfQNPXipLnm-39">
          <mxGeometry y="78" width="160" height="26" as="geometry" />
        </mxCell>
        <mxCell id="lLXj63jn0TfQNPXipLnm-13" value="user_password" style="text;html=1;strokeColor=none;fillColor=none;align=left;verticalAlign=top;spacingLeft=4;spacingRight=4;whiteSpace=wrap;overflow=hidden;rotatable=0;points=[[0,0.5],[1,0.5]];portConstraint=eastwest;" vertex="1" parent="lLXj63jn0TfQNPXipLnm-39">
          <mxGeometry y="104" width="160" height="26" as="geometry" />
        </mxCell>
        <mxCell id="lLXj63jn0TfQNPXipLnm-17" value="" style="endArrow=classic;startArrow=classic;html=1;entryX=0.5;entryY=1;entryDx=0;entryDy=0;exitX=0.44;exitY=0.009;exitDx=0;exitDy=0;exitPerimeter=0;" edge="1" parent="lLXj63jn0TfQNPXipLnm-20" source="lLXj63jn0TfQNPXipLnm-8" target="78961159f06e98e8-17">
          <mxGeometry width="50" height="50" relative="1" as="geometry">
            <mxPoint x="30" y="400" as="sourcePoint" />
            <mxPoint x="80" y="350" as="targetPoint" />
          </mxGeometry>
        </mxCell>
        <mxCell id="lLXj63jn0TfQNPXipLnm-18" value="1" style="text;html=1;align=center;verticalAlign=middle;resizable=0;points=[];autosize=1;" vertex="1" parent="lLXj63jn0TfQNPXipLnm-20">
          <mxGeometry x="50" y="370" width="20" height="20" as="geometry" />
        </mxCell>
        <mxCell id="lLXj63jn0TfQNPXipLnm-19" value="1" style="text;html=1;align=center;verticalAlign=middle;resizable=0;points=[];autosize=1;" vertex="1" parent="lLXj63jn0TfQNPXipLnm-20">
          <mxGeometry x="90" y="310" width="20" height="20" as="geometry" />
        </mxCell>
        <mxCell id="lLXj63jn0TfQNPXipLnm-22" value="" style="endArrow=classic;startArrow=classic;html=1;" edge="1" parent="lLXj63jn0TfQNPXipLnm-25">
          <mxGeometry width="50" height="50" relative="1" as="geometry">
            <mxPoint x="170" y="500" as="sourcePoint" />
            <mxPoint x="280" y="430" as="targetPoint" />
          </mxGeometry>
        </mxCell>
        <mxCell id="lLXj63jn0TfQNPXipLnm-23" value="1" style="text;html=1;align=center;verticalAlign=middle;resizable=0;points=[];autosize=1;" vertex="1" parent="lLXj63jn0TfQNPXipLnm-25">
          <mxGeometry x="170" y="500" width="20" height="20" as="geometry" />
        </mxCell>
        <mxCell id="lLXj63jn0TfQNPXipLnm-24" value="n" style="text;html=1;align=center;verticalAlign=middle;resizable=0;points=[];autosize=1;" vertex="1" parent="lLXj63jn0TfQNPXipLnm-25">
          <mxGeometry x="250" y="410" width="20" height="20" as="geometry" />
        </mxCell>
        <mxCell id="lLXj63jn0TfQNPXipLnm-3" value="&lt;font style=&quot;font-size: 36px&quot;&gt;unicon-project&lt;/font&gt;" style="text;html=1;align=center;verticalAlign=middle;resizable=0;points=[];autosize=1;fillColor=#ffe6cc;strokeColor=#d79b00;" vertex="1" parent="lLXj63jn0TfQNPXipLnm-25">
          <mxGeometry x="200" y="50" width="240" height="30" as="geometry" />
        </mxCell>
        <mxCell id="lLXj63jn0TfQNPXipLnm-26" value="" style="endArrow=classic;startArrow=classic;html=1;" edge="1" parent="lLXj63jn0TfQNPXipLnm-31" target="78961159f06e98e8-51">
          <mxGeometry width="50" height="50" relative="1" as="geometry">
            <mxPoint x="440" y="266" as="sourcePoint" />
            <mxPoint x="490" y="216" as="targetPoint" />
          </mxGeometry>
        </mxCell>
        <mxCell id="lLXj63jn0TfQNPXipLnm-27" value="1" style="text;html=1;align=center;verticalAlign=middle;resizable=0;points=[];autosize=1;" vertex="1" parent="lLXj63jn0TfQNPXipLnm-31">
          <mxGeometry x="440" y="260" width="20" height="20" as="geometry" />
        </mxCell>
        <mxCell id="lLXj63jn0TfQNPXipLnm-28" value="1" style="text;html=1;align=center;verticalAlign=middle;resizable=0;points=[];autosize=1;" vertex="1" parent="lLXj63jn0TfQNPXipLnm-31">
          <mxGeometry x="530" y="220" width="20" height="20" as="geometry" />
        </mxCell>
        <mxCell id="lLXj63jn0TfQNPXipLnm-35" value="" style="group" vertex="1" connectable="0" parent="lLXj63jn0TfQNPXipLnm-31">
          <mxGeometry x="520" width="160" height="490" as="geometry" />
        </mxCell>
        <mxCell id="78961159f06e98e8-43" value="product information" style="swimlane;html=1;fontStyle=1;align=center;verticalAlign=top;childLayout=stackLayout;horizontal=1;startSize=26;horizontalStack=0;resizeParent=1;resizeLast=0;collapsible=1;marginBottom=0;swimlaneFillColor=#ffffff;rounded=0;shadow=0;comic=0;labelBackgroundColor=none;strokeWidth=1;fillColor=none;fontFamily=Verdana;fontSize=12" parent="lLXj63jn0TfQNPXipLnm-35" vertex="1">
          <mxGeometry width="160" height="216" as="geometry" />
        </mxCell>
        <mxCell id="lLXj63jn0TfQNPXipLnm-36" value="" style="group" vertex="1" connectable="0" parent="78961159f06e98e8-43">
          <mxGeometry y="26" width="160" height="190" as="geometry" />
        </mxCell>
        <mxCell id="78961159f06e98e8-44" value="price" style="text;html=1;strokeColor=none;fillColor=none;align=left;verticalAlign=top;spacingLeft=4;spacingRight=4;whiteSpace=wrap;overflow=hidden;rotatable=0;points=[[0,0.5],[1,0.5]];portConstraint=eastwest;" parent="lLXj63jn0TfQNPXipLnm-36" vertex="1">
          <mxGeometry width="160" height="26" as="geometry" />
        </mxCell>
        <mxCell id="78961159f06e98e8-45" value="wareHouse" style="text;html=1;strokeColor=none;fillColor=none;align=left;verticalAlign=top;spacingLeft=4;spacingRight=4;whiteSpace=wrap;overflow=hidden;rotatable=0;points=[[0,0.5],[1,0.5]];portConstraint=eastwest;" parent="lLXj63jn0TfQNPXipLnm-36" vertex="1">
          <mxGeometry y="26" width="160" height="26" as="geometry" />
        </mxCell>
        <mxCell id="78961159f06e98e8-49" value="classify" style="text;html=1;strokeColor=none;fillColor=none;align=left;verticalAlign=top;spacingLeft=4;spacingRight=4;whiteSpace=wrap;overflow=hidden;rotatable=0;points=[[0,0.5],[1,0.5]];portConstraint=eastwest;" parent="lLXj63jn0TfQNPXipLnm-36" vertex="1">
          <mxGeometry y="52" width="160" height="26" as="geometry" />
        </mxCell>
        <mxCell id="78961159f06e98e8-50" value="picture" style="text;html=1;strokeColor=none;fillColor=none;align=left;verticalAlign=top;spacingLeft=4;spacingRight=4;whiteSpace=wrap;overflow=hidden;rotatable=0;points=[[0,0.5],[1,0.5]];portConstraint=eastwest;" parent="lLXj63jn0TfQNPXipLnm-36" vertex="1">
          <mxGeometry y="78" width="160" height="26" as="geometry" />
        </mxCell>
        <mxCell id="lLXj63jn0TfQNPXipLnm-7" value="product_id" style="text;html=1;strokeColor=none;fillColor=none;align=left;verticalAlign=top;spacingLeft=4;spacingRight=4;whiteSpace=wrap;overflow=hidden;rotatable=0;points=[[0,0.5],[1,0.5]];portConstraint=eastwest;" vertex="1" parent="lLXj63jn0TfQNPXipLnm-36">
          <mxGeometry y="104" width="160" height="26" as="geometry" />
        </mxCell>
        <mxCell id="78961159f06e98e8-51" value="" style="line;html=1;strokeWidth=1;fillColor=none;align=left;verticalAlign=middle;spacingTop=-1;spacingLeft=3;spacingRight=3;rotatable=0;labelPosition=right;points=[];portConstraint=eastwest;" parent="lLXj63jn0TfQNPXipLnm-36" vertex="1">
          <mxGeometry y="130" width="160" height="60" as="geometry" />
        </mxCell>
        <mxCell id="78961159f06e98e8-56" value="transport" style="swimlane;html=1;fontStyle=1;align=center;verticalAlign=top;childLayout=stackLayout;horizontal=1;startSize=26;horizontalStack=0;resizeParent=1;resizeLast=0;collapsible=1;marginBottom=0;swimlaneFillColor=#ffffff;rounded=0;shadow=0;comic=0;labelBackgroundColor=none;strokeWidth=1;fillColor=none;fontFamily=Verdana;fontSize=12" parent="lLXj63jn0TfQNPXipLnm-35" vertex="1">
          <mxGeometry y="300" width="160" height="190" as="geometry" />
        </mxCell>
        <mxCell id="78961159f06e98e8-57" value="weight" style="text;html=1;strokeColor=none;fillColor=none;align=left;verticalAlign=top;spacingLeft=4;spacingRight=4;whiteSpace=wrap;overflow=hidden;rotatable=0;points=[[0,0.5],[1,0.5]];portConstraint=eastwest;" parent="78961159f06e98e8-56" vertex="1">
          <mxGeometry y="26" width="160" height="26" as="geometry" />
        </mxCell>
        <mxCell id="78961159f06e98e8-58" value="size" style="text;html=1;strokeColor=none;fillColor=none;align=left;verticalAlign=top;spacingLeft=4;spacingRight=4;whiteSpace=wrap;overflow=hidden;rotatable=0;points=[[0,0.5],[1,0.5]];portConstraint=eastwest;" parent="78961159f06e98e8-56" vertex="1">
          <mxGeometry y="52" width="160" height="26" as="geometry" />
        </mxCell>
        <mxCell id="78961159f06e98e8-59" value="transport fee" style="text;html=1;strokeColor=none;fillColor=none;align=left;verticalAlign=top;spacingLeft=4;spacingRight=4;whiteSpace=wrap;overflow=hidden;rotatable=0;points=[[0,0.5],[1,0.5]];portConstraint=eastwest;" parent="78961159f06e98e8-56" vertex="1">
          <mxGeometry y="78" width="160" height="26" as="geometry" />
        </mxCell>
        <mxCell id="78961159f06e98e8-64" value="" style="line;html=1;strokeWidth=1;fillColor=none;align=left;verticalAlign=middle;spacingTop=-1;spacingLeft=3;spacingRight=3;rotatable=0;labelPosition=right;points=[];portConstraint=eastwest;" parent="78961159f06e98e8-56" vertex="1">
          <mxGeometry y="104" width="160" height="8" as="geometry" />
        </mxCell>
        <mxCell id="lLXj63jn0TfQNPXipLnm-32" value="" style="endArrow=classic;startArrow=classic;html=1;exitX=0.463;exitY=-0.006;exitDx=0;exitDy=0;exitPerimeter=0;" edge="1" parent="lLXj63jn0TfQNPXipLnm-35" source="78961159f06e98e8-56">
          <mxGeometry width="50" height="50" relative="1" as="geometry">
            <mxPoint x="55" y="280" as="sourcePoint" />
            <mxPoint x="75" y="220" as="targetPoint" />
            <Array as="points">
              <mxPoint x="75" y="260" />
            </Array>
          </mxGeometry>
        </mxCell>
        <mxCell id="lLXj63jn0TfQNPXipLnm-33" value="1" style="text;html=1;align=center;verticalAlign=middle;resizable=0;points=[];autosize=1;" vertex="1" parent="1">
          <mxGeometry x="700" y="90" width="20" height="20" as="geometry" />
        </mxCell>
        <mxCell id="lLXj63jn0TfQNPXipLnm-34" value="1" style="text;html=1;align=center;verticalAlign=middle;resizable=0;points=[];autosize=1;" vertex="1" parent="1">
          <mxGeometry x="700" y="150" width="20" height="20" as="geometry" />
        </mxCell>
      </root>
    </mxGraphModel>
  </diagram>
</mxfile>
